<?xml version="1.0" standalone="no"?>
<!DOCTYPE svg PUBLIC "-//W3C//DTD SVG 20010904//EN"
 "http://www.w3.org/TR/2001/REC-SVG-20010904/DTD/svg10.dtd">
<svg version="1.0" xmlns="http://www.w3.org/2000/svg"
 width="340.000000pt" height="340.000000pt" viewBox="0 0 340.000000 340.000000"
 preserveAspectRatio="xMidYMid meet">
<metadata>
Created by potrace 1.11, written by Peter Selinger 2001-2013
</metadata>
<g transform="translate(0.000000,340.000000) scale(0.100000,-0.100000)"
fill="#000000" stroke="none">
<path d="M0 1700 l0 -1700 1700 0 1700 0 0 1700 0 1700 -1700 0 -1700 0 0
-1700z m1066 1665 c113 -20 230 -62 252 -90 9 -12 22 -20 28 -18 19 6 142
-105 183 -165 52 -78 60 -95 77 -160 8 -31 19 -61 25 -68 5 -7 9 -54 8 -106
-1 -51 1 -107 5 -123 5 -25 1 -40 -23 -75 -37 -54 -39 -89 -8 -118 18 -17 41
-23 108 -29 46 -3 100 -6 119 -5 19 1 63 3 96 5 67 2 83 13 124 87 42 75 166
215 226 256 61 41 130 72 119 54 -4 -6 3 -10 14 -10 24 0 36 16 19 23 -9 4
-10 6 -1 6 6 1 14 -3 17 -8 3 -5 26 -4 53 1 27 5 89 10 138 10 81 1 99 -3 177
-35 459 -185 657 -808 385 -1207 -78 -115 -226 -210 -370 -240 -32 -6 -70 -9
-85 -5 -14 3 -59 3 -100 -1 l-74 -7 6 -44 c3 -24 2 -42 -3 -39 -4 3 -9 -69 -9
-161 -1 -107 -6 -171 -13 -179 -9 -11 -8 -14 1 -14 7 0 3 -16 -13 -43 -54 -92
-69 -123 -89 -176 -11 -31 -35 -72 -52 -91 -18 -19 -38 -47 -44 -62 -6 -16
-29 -47 -50 -70 -21 -24 -57 -69 -81 -100 -39 -52 -137 -134 -221 -185 -54
-33 -293 -109 -413 -132 -157 -30 -283 -28 -454 8 -170 37 -255 69 -313 121
-49 43 -30 43 35 0 41 -27 133 -65 195 -81 224 -56 337 -62 523 -25 138 28
347 94 416 131 47 26 194 154 177 155 -5 0 22 33 61 73 121 125 214 283 276
468 38 113 49 207 45 370 l-3 146 30 -9 c55 -16 219 -21 276 -8 65 15 168 64
190 90 9 11 18 18 20 16 2 -2 15 10 28 26 21 26 16 25 -44 -16 -38 -25 -75
-46 -82 -46 -8 0 -11 -4 -8 -10 3 -6 -1 -7 -9 -4 -9 3 -16 2 -16 -4 0 -6 -14
-15 -31 -21 -35 -12 -65 -14 -36 -3 10 4 -29 6 -86 4 -75 -3 -120 0 -157 11
-29 9 -59 13 -68 10 -9 -4 -13 -2 -9 4 4 7 -3 10 -18 9 -33 -1 -36 -14 -23
-85 11 -57 10 -61 -13 -85 -13 -14 -30 -26 -36 -26 -7 0 -13 -5 -13 -10 0 -12
-143 -5 -307 16 -199 25 -557 100 -547 115 3 5 -2 6 -10 3 -23 -9 -117 16
-109 29 3 6 1 7 -6 3 -17 -11 -112 14 -104 27 3 6 1 7 -5 3 -6 -4 -22 -4 -35
-1 -19 5 -24 12 -20 28 4 20 3 21 -10 5 -16 -20 -32 -25 -21 -7 4 8 0 9 -15 4
-12 -4 -21 -2 -21 4 0 6 -8 8 -17 5 -17 -5 -17 -5 0 6 9 6 15 15 12 21 -4 5 1
9 10 9 9 0 13 4 10 10 -3 5 -2 10 4 10 5 0 12 -4 16 -9 6 -11 37 3 76 34 22
18 25 27 23 71 -2 52 -36 129 -62 139 -8 3 -10 0 -6 -7 5 -7 3 -8 -7 -3 -7 5
-29 12 -49 16 -35 7 -35 7 -5 9 29 2 29 2 5 9 -20 6 -32 0 -62 -30 -21 -21
-38 -44 -38 -52 0 -15 -67 -72 -85 -72 -6 0 -22 -10 -35 -23 -29 -27 -51 -28
-75 -2 -10 11 -21 17 -25 15 -4 -3 -10 2 -14 10 -3 8 -11 12 -19 9 -7 -2 -26
0 -41 6 -21 8 -32 7 -43 -2 -12 -10 -18 -9 -28 5 -6 9 -15 14 -18 10 -4 -3 -7
-1 -7 6 0 7 -4 9 -10 6 -5 -3 -10 -2 -10 3 0 6 -8 9 -17 8 -11 0 -17 5 -15 13
2 9 -3 11 -13 7 -8 -3 -24 2 -34 12 -10 9 -24 18 -31 20 -8 2 -24 15 -37 28
-13 14 -27 23 -32 19 -16 -9 -24 35 -9 53 7 9 20 25 28 36 8 10 28 34 44 53
33 39 26 57 -27 68 -49 11 -158 56 -196 81 -19 13 -39 20 -44 17 -6 -3 -7 -1
-4 4 4 6 -3 17 -16 26 -65 42 -147 161 -188 272 -10 26 -21 121 -19 160 1 17
2 57 3 90 1 33 6 63 11 66 5 4 9 21 10 38 0 17 5 31 10 31 4 0 5 7 2 16 -3 8
-2 12 4 9 6 -3 10 0 10 7 0 35 97 169 182 251 51 48 95 87 99 87 5 0 32 14 61
31 29 17 55 32 58 33 3 0 4 5 2 9 -1 5 2 6 7 3 14 -9 41 4 41 20 0 33 -144
-24 -240 -97 -143 -106 -227 -222 -282 -385 -20 -59 -23 -88 -22 -199 1 -138
13 -193 72 -310 52 -104 233 -253 330 -271 31 -6 53 -30 58 -64 2 -8 -21 -46
-49 -84 -29 -39 -73 -111 -99 -161 -34 -64 -47 -83 -48 -65 0 32 80 174 125
220 29 30 33 39 27 67 -6 28 -16 37 -77 66 -92 45 -210 135 -253 195 -18 26
-50 79 -70 117 l-37 70 0 215 0 215 53 109 c40 82 69 125 115 174 232 242 533
349 833 297z m-758 -1917 c-23 -82 -36 -359 -21 -438 8 -39 6 -51 -17 -90 -40
-68 -44 -96 -19 -121 16 -16 30 -20 57 -17 l35 4 50 -105 c27 -58 68 -132 89
-164 22 -32 38 -61 35 -63 -13 -13 -59 46 -106 135 -29 56 -61 106 -72 111
-10 6 -19 17 -19 25 0 17 -30 34 -47 28 -7 -3 -13 0 -13 6 0 6 -6 11 -13 11
-19 0 -37 44 -37 91 0 21 11 63 25 91 14 29 23 59 20 68 -12 30 -5 246 10 315
8 39 20 92 25 118 11 53 17 67 30 67 4 0 -1 -33 -12 -72z m151 38 c31 -18 93
-53 138 -76 l82 -43 -79 -79 c-44 -43 -84 -78 -89 -78 -5 0 -15 -8 -22 -17
-12 -15 -12 -16 1 -8 8 4 4 -4 -9 -18 -14 -15 -29 -27 -35 -27 -6 0 -29 -22
-51 -50 -21 -27 -44 -51 -50 -54 -37 -14 -17 347 25 459 12 32 21 32 89 -9z
m2349 -83 c-10 -2 -26 -2 -35 0 -10 3 -2 5 17 5 19 0 27 -2 18 -5z m-298 -153
c-20 -13 -43 -13 -35 0 3 6 16 10 28 10 18 0 19 -2 7 -10z m-1505 -70 c44 -22
100 -26 111 -9 8 14 35 9 178 -35 138 -43 249 -72 366 -95 74 -15 293 -53 325
-57 199 -24 308 -31 398 -28 125 5 121 8 83 -98 -57 -156 -135 -281 -258 -413
-69 -74 -238 -205 -264 -205 -14 0 -74 84 -74 104 0 6 -4 16 -9 22 -8 9 -53
148 -67 207 -3 15 -10 27 -16 27 -5 0 -8 8 -7 18 1 9 1 19 0 22 -3 7 -11 111
-11 137 0 33 -23 20 -68 -40 -50 -67 -152 -177 -163 -177 -4 0 -25 -15 -45
-34 -21 -19 -42 -33 -46 -30 -4 3 -8 1 -8 -4 0 -11 -171 -112 -189 -112 -7 0
-9 -4 -6 -10 12 -19 -4 -10 -34 19 -30 29 -108 161 -95 161 3 0 2 6 -3 13 -6
6 -16 33 -24 59 -7 26 -15 45 -18 43 -4 -2 -7 11 -8 28 -1 17 -6 33 -10 36
-10 8 -12 15 -36 159 -11 67 -23 122 -26 121 -3 0 -35 -39 -71 -86 -64 -84
-190 -196 -290 -258 -25 -15 -47 -31 -50 -35 -3 -3 -20 -12 -38 -19 -43 -18
-51 -10 -102 95 l-42 86 24 26 c34 39 62 61 74 62 6 0 22 10 35 23 13 13 49
40 79 62 55 38 182 142 274 223 46 40 50 42 70 27 12 -9 39 -24 61 -35z m252
4 c-3 -3 -12 -4 -19 -1 -8 3 -5 6 6 6 11 1 17 -2 13 -5z m110 -30 c-3 -3 -12
-4 -19 -1 -8 3 -5 6 6 6 11 1 17 -2 13 -5z m70 -20 c-3 -3 -12 -4 -19 -1 -8 3
-5 6 6 6 11 1 17 -2 13 -5z m40 -10 c-3 -3 -12 -4 -19 -1 -8 3 -5 6 6 6 11 1
17 -2 13 -5z m46 -11 c-7 -2 -19 -2 -25 0 -7 3 -2 5 12 5 14 0 19 -2 13 -5z
m44 -9 c-3 -3 -12 -4 -19 -1 -8 3 -5 6 6 6 11 1 17 -2 13 -5z m90 -20 c-3 -3
-12 -4 -19 -1 -8 3 -5 6 6 6 11 1 17 -2 13 -5z m56 -11 c-7 -2 -19 -2 -25 0
-7 3 -2 5 12 5 14 0 19 -2 13 -5z m50 -10 c-7 -2 -19 -2 -25 0 -7 3 -2 5 12 5
14 0 19 -2 13 -5z m60 -10 c-7 -2 -21 -2 -30 0 -10 3 -4 5 12 5 17 0 24 -2 18
-5z m60 -10 c-7 -2 -21 -2 -30 0 -10 3 -4 5 12 5 17 0 24 -2 18 -5z m70 -10
c-7 -2 -19 -2 -25 0 -7 3 -2 5 12 5 14 0 19 -2 13 -5z m75 -10 c-10 -2 -26 -2
-35 0 -10 3 -2 5 17 5 19 0 27 -2 18 -5z m90 -10 c-10 -2 -28 -2 -40 0 -13 2
-5 4 17 4 22 1 32 -1 23 -4z m119 -10 c-20 -2 -52 -2 -70 0 -17 2 0 4 38 4 39
0 53 -2 32 -4z m158 -8 c6 -2 -16 -4 -47 -4 -31 -1 -59 3 -62 7 -5 8 85 5 109
-3z m-225 -649 c0 -2 -12 -11 -27 -20 l-28 -17 24 20 c23 21 31 25 31 17z
m-90 -66 c-36 -28 -152 -91 -158 -86 -2 3 22 18 54 35 33 16 73 39 89 50 38
26 48 27 15 1z m-870 -190 c57 -12 74 -18 50 -19 -47 -1 -171 26 -184 40 -8 9
-3 10 19 4 17 -4 68 -15 115 -25z m-3 24 c-3 -3 -12 -4 -19 -1 -8 3 -5 6 6 6
11 1 17 -2 13 -5z m108 -14 c14 -7 8 -8 -20 -3 -22 3 -42 7 -44 9 -9 8 45 2
64 -6z m118 -7 c-13 -2 -33 -2 -45 0 -13 2 -3 4 22 4 25 0 35 -2 23 -4z"/>
<path d="M875 3320 l-50 -6 75 -7 c153 -16 227 -30 288 -54 79 -32 166 -89
214 -139 67 -72 88 -94 88 -99 3 -31 14 -65 21 -65 5 0 9 -7 9 -15 0 -9 6 -18
14 -21 8 -3 12 -12 9 -20 -3 -8 -1 -14 5 -14 5 0 7 -12 4 -26 -3 -17 -1 -25 5
-21 6 4 9 -12 8 -44 -1 -27 1 -51 4 -54 16 -9 -9 -164 -39 -242 -34 -90 -40
-96 -114 -133 -48 -24 -68 -52 -49 -71 4 -4 49 -11 98 -14 147 -8 194 -16 306
-45 174 -46 271 -95 359 -180 147 -144 191 -235 240 -492 8 -42 16 -59 31 -63
60 -19 88 37 183 354 9 29 16 68 16 85 0 49 18 68 56 57 64 -18 174 18 261 86
83 65 214 111 291 103 32 -3 52 -2 53 5 1 5 5 -6 10 -25 5 -19 6 -47 3 -63 -3
-16 -1 -27 5 -27 6 0 11 -14 11 -31 0 -17 -4 -28 -10 -24 -5 3 -10 1 -10 -4 0
-6 5 -11 10 -11 6 0 10 -19 9 -42 0 -35 -2 -39 -10 -23 -7 15 -8 9 -5 -22 2
-24 0 -45 -4 -48 -4 -3 -6 -15 -2 -27 3 -14 2 -19 -6 -14 -7 4 -12 2 -12 -3 0
-6 7 -11 15 -11 13 0 20 19 16 44 -1 4 3 14 9 21 17 20 16 265 0 265 -4 0 -7
11 -7 25 0 13 -10 41 -21 62 -11 22 -23 59 -27 83 -18 110 -121 263 -243 361
-124 100 -229 138 -387 138 -116 0 -167 -10 -250 -51 -76 -37 -136 -87 -185
-153 -47 -63 -100 -173 -93 -191 11 -29 -85 -35 -322 -20 -74 5 -141 4 -175
-2 -30 -6 -57 -9 -59 -6 -2 2 4 16 14 31 34 51 65 157 77 259 11 94 10 109
-10 189 -26 107 -63 166 -150 243 -131 114 -209 159 -327 187 -69 16 -203 30
-250 25z m1864 -567 c6 -7 19 -12 48 -17 6 -1 47 -20 90 -41 116 -59 248 -196
312 -322 34 -69 31 -73 -41 -56 -111 26 -283 -4 -445 -77 -63 -29 -104 -40
-73 -20 8 5 11 10 5 10 -6 0 -11 42 -12 101 -1 55 -7 106 -12 113 -6 7 -8 16
-4 19 3 4 0 13 -7 22 -7 8 -10 15 -6 15 9 0 -30 37 -53 49 -36 20 -86 12 -155
-25 -74 -39 -238 -104 -258 -103 -10 0 -10 2 0 6 6 2 10 9 6 14 -16 26 95 181
171 239 40 31 138 73 188 81 61 9 237 4 246 -8z m-606 -400 c-13 -2 -35 -2
-50 0 -16 2 -5 4 22 4 28 0 40 -2 28 -4z m1082 -92 c19 -8 -178 -3 -200 4 -5
2 33 3 85 4 52 0 104 -4 115 -8z m-245 -11 c-34 -11 -60 -11 -35 0 11 5 29 8
40 8 16 0 15 -2 -5 -8z m-150 -55 c-52 -24 -111 -47 -130 -50 -22 -4 -11 3 30
18 36 13 88 35 115 50 28 14 57 26 65 26 8 1 -28 -19 -80 -44z m375 36 c-6 -5
-41 -18 -79 -30 -38 -12 -91 -33 -118 -47 -26 -13 -48 -22 -48 -19 0 7 55 34
145 72 78 32 119 42 100 24z m-610 -41 c-3 -5 -14 -10 -23 -9 -14 0 -13 2 3 9
27 11 27 11 20 0z m-45 -14 c0 -8 -131 -48 -137 -43 -3 3 24 15 58 25 70 22
79 24 79 18z m-307 -33 c-7 -2 -19 -2 -25 0 -7 3 -2 5 12 5 14 0 19 -2 13 -5z
m370 -20 c-7 -2 -19 -2 -25 0 -7 3 -2 5 12 5 14 0 19 -2 13 -5z m-75 -10 c-15
-2 -42 -2 -60 0 -18 2 -6 4 27 4 33 0 48 -2 33 -4z m-58 -43 c8 -5 11 -10 5
-10 -5 0 -17 5 -25 10 -8 5 -10 10 -5 10 6 0 17 -5 25 -10z m-152 -7 c-16 -2
-40 -2 -55 0 -16 2 -3 4 27 4 30 0 43 -2 28 -4z m502 -18 c0 -13 -64 -35 -102
-34 l-43 1 45 8 c25 5 56 13 70 18 31 13 30 13 30 7z"/>
<path d="M678 3283 c7 -3 16 -2 19 1 4 3 -2 6 -13 5 -11 0 -14 -3 -6 -6z"/>
<path d="M640 3271 c0 -6 5 -13 10 -16 6 -3 10 1 10 9 0 9 -4 16 -10 16 -5 0
-10 -4 -10 -9z"/>
<path d="M678 3263 c7 -3 16 -2 19 1 4 3 -2 6 -13 5 -11 0 -14 -3 -6 -6z"/>
<path d="M3255 1789 c-4 -6 -5 -12 -2 -15 2 -3 7 2 10 11 7 17 1 20 -8 4z"/>
<path d="M3235 1739 c-4 -6 -5 -12 -2 -15 2 -3 7 2 10 11 7 17 1 20 -8 4z"/>
<path d="M3206 1673 c-6 -14 -5 -15 5 -6 7 7 10 15 7 18 -3 3 -9 -2 -12 -12z"/>
<path d="M2910 1440 c-9 -6 -10 -10 -3 -10 6 0 15 5 18 10 8 12 4 12 -15 0z"/>
<path d="M2098 1283 c7 -3 16 -2 19 1 4 3 -2 6 -13 5 -11 0 -14 -3 -6 -6z"/>
<path d="M2178 1273 c7 -3 16 -2 19 1 4 3 -2 6 -13 5 -11 0 -14 -3 -6 -6z"/>
<path d="M2268 1263 c6 -2 18 -2 25 0 6 3 1 5 -13 5 -14 0 -19 -2 -12 -5z"/>
</g>
</svg>
